<svg width="19" height="20" viewBox="0 0 19 20" fill="none" xmlns="http://www.w3.org/2000/svg">
<path d="M1.26561 8.58167C2.95771 8.45913 4.61603 7.70731 5.90915 6.32602C7.20226 4.94475 7.9061 3.17337 8.02082 1.36592C6.32872 1.48845 4.6704 2.24028 3.37728 3.62157C2.08417 5.00284 1.38033 6.77421 1.26561 8.58167Z" fill="#2C2D30"/>
<path d="M17.2393 11.1595C15.5472 11.2821 13.8889 12.0339 12.5957 13.4152C11.3026 14.7965 10.5988 16.5678 10.4841 18.3753C12.1762 18.2528 13.8345 17.5009 15.1276 16.1196C16.4207 14.7384 17.1245 12.967 17.2393 11.1595Z" fill="#2C2D30"/>
<path d="M8.03927 18.423C7.92783 16.5944 7.21821 14.8068 5.91886 13.4188C4.63208 12.0443 2.99024 11.2993 1.32031 11.1729C1.43175 13.0014 2.14137 14.7891 3.44072 16.177C4.7275 17.5515 6.36934 18.2965 8.03927 18.423Z" fill="#2C2D30"/>
<path d="M10.5121 1.35229C10.6269 3.15975 11.3307 4.93114 12.6238 6.31243C13.9169 7.69369 15.5752 8.44552 17.2673 8.56807C17.1526 6.7606 16.4487 4.98921 15.1556 3.60793C13.8625 2.22666 12.2042 1.47484 10.5121 1.35229Z" fill="#2C2D30"/>
</svg>
