<svg fill="none" height="20" viewBox="0 0 19 20" width="19" xmlns="http://www.w3.org/2000/svg"><g fill="#2c2d30"><path d="m1.26561 8.58167c1.6921-.12254 3.35042-.87436 4.64354-2.25565 1.29311-1.38127 1.99695-3.15265 2.11167-4.9601-1.6921.12253-3.35042.87436-4.64354 2.25565-1.29311 1.38127-1.99695 3.15264-2.11167 4.9601z"/><path d="m17.2393 11.1595c-1.6921.1226-3.3504.8744-4.6436 2.2557-1.2931 1.3813-1.9969 3.1526-2.1116 4.9601 1.6921-.1225 3.3504-.8744 4.6435-2.2557 1.2931-1.3812 1.9969-3.1526 2.1117-4.9601z"/><path d="m8.03927 18.423c-.11144-1.8286-.82106-3.6162-2.12041-5.0042-1.28678-1.3745-2.92862-2.1195-4.59855-2.2459.11144 1.8285.82106 3.6162 2.12041 5.0041 1.28678 1.3745 2.92862 2.1195 4.59855 2.246z"/><path d="m10.5121 1.35229c.1148 1.80746.8186 3.57885 2.1117 4.96014 1.2931 1.38126 2.9514 2.13309 4.6435 2.25564-.1147-1.80747-.8186-3.57886-2.1117-4.96014-1.2931-1.38127-2.9514-2.13309-4.6435-2.25564z"/></g></svg>