<svg fill="none" height="75" viewBox="0 0 76 75" width="76" xmlns="http://www.w3.org/2000/svg"><path d="m31.9437 15.0375-1.0446-1.0856c-.2898.2759-.4552.657-.4591 1.0578s.1541.7879.4385 1.0744zm-16.2476 19.9547c.1072-.8185-.4735-1.5744-1.297-1.6884-.8236-.114-1.5781.4571-1.6853 1.2755zm27.084-6.9191c.5863.5905 1.5384.6006 2.1267.0226.5882-.578.5899-1.5253.0037-2.1159zm2.6351-23.77911c.5974-.56867.6141-1.5157.0372-2.11524-.577-.59955-1.5289-.62457-2.1264-.05589zm-13.0849 12.19281c4.6675-1.194 9.6004-.8886 14.0718.8674l1.0824-2.7822c-5.068-1.9902-10.6506-2.3337-15.9275-.9838zm14.0718.8674c4.471 1.7558 8.2429 4.8682 10.7652 8.8746l2.5447-1.5722c-2.8713-4.5608-7.159-8.0941-12.2275-10.0846zm10.7652 8.8746c2.5221 4.0061 3.6644 8.6985 3.2588 13.3884l2.9965.2831c.4617-5.3387-.839-10.6826-3.7106-15.2437zm3.2588 13.3884c-.4056 4.6903-2.3385 9.1349-5.5205 12.6773l2.2504 2.0052c3.6061-4.0146 5.8049-9.0612 6.2666-14.3994zm-5.5205 12.6773c-3.1823 3.5428-7.4446 5.9944-12.1602 6.9904l.6497 2.9275c5.3314-1.1261 10.1551-3.8984 13.7609-7.9127zm-12.1602 6.9904c-4.7155.996-9.6299.4828-14.0193-1.4599l-1.2017 2.7324c4.9765 2.2025 10.5394 2.7811 15.8707 1.655zm-14.0193-1.4599c-4.3888-1.9424-8.0198-5.2105-10.3633-9.3192l-2.6124 1.4593c2.6683 4.6782 6.7971 8.3896 11.774 10.5923zm-10.3633-9.3192c-2.3433-4.1084-3.2782-8.8446-2.6667-13.5136l-2.9823-.4129c-.6961 5.3137.3682 10.7074 3.0366 15.3858zm12.5157-32.4217 11.9016 11.989 2.1304-2.0933-11.9016-11.9889zm2.1098.039 12.4269-11.82911-2.0892-2.17113-12.4269 11.82904z" fill="#111e47"/></svg>